<?xml version="1.0" encoding="UTF-8" standalone="no"?>
<!DOCTYPE svg PUBLIC "-//W3C//DTD SVG 1.1//EN" "http://www.w3.org/Graphics/SVG/1.1/DTD/svg11.dtd">
<svg width="100%" height="100%" viewBox="0 0 1476 1574" version="1.1" style="fill-rule:evenodd;clip-rule:evenodd;stroke-linecap:square;stroke-linejoin:round;stroke-miterlimit:1.5;">
    <g id="Artboard1" transform="matrix(1,0,0,1,-589,-261)">
        <rect x="589" y="261" width="1476" height="1574" style="fill:none;"/>
        <g transform="matrix(0.893723,0,0,0.893723,231.814,240.383)">
            <circle cx="1218" cy="910" r="701" style="fill:rgb(170,66,67);"/>
        </g>
        <g transform="matrix(0.893723,0,0,0.893723,231.814,240.383)">
            <clipPath id="_clip1">
                <path d="M1225.42,1157.65C1225.42,1157.65 1066.99,1156.97 1027.37,1157.65C987.755,1158.33 915.923,1195.4 888.627,1258.35C861.33,1321.3 848.333,1365.4 833.105,1431.78C817.876,1498.17 806.946,1552.62 806.946,1552.62C806.946,1552.62 978.492,1614.88 1241.87,1610.81C1444.61,1607.68 1627.11,1552.62 1627.11,1552.62C1627.11,1552.62 1646.59,1341.9 1562.21,1258.35C1477.84,1174.8 1508.74,1200.19 1440.25,1175.55C1371.76,1150.91 1225.42,1157.65 1225.42,1157.65Z"/>
            </clipPath>
            <g clip-path="url(#_clip1)">
                <circle cx="1218" cy="910" r="701" style="fill:rgb(28,26,26);"/>
            </g>
        </g>
        <g>
            <path d="M1578,1074C1578,1074 1726.03,1206.35 1731.59,1333C1737.16,1459.65 1714.29,1527.83 1678.83,1572C1643.37,1616.17 1572.55,1653.06 1578,1748C1578,1748 1497.96,1742.83 1469.46,1734C1440.96,1725.17 1407,1695 1407,1695C1407,1695 1398.43,1579.43 1469.46,1521C1540.48,1462.57 1587.81,1400.79 1578,1333C1568.19,1265.21 1557.1,1181.09 1469.46,1133C1381.82,1084.91 1578,1074 1578,1074Z" style="fill:rgb(59,40,34);"/>
            <path d="M1497.55,1146.88C1516.53,1166.06 1519.91,1194.04 1537.1,1215.01C1620.23,1316.36 1571.49,1402.89 1537.1,1454.51C1485.57,1531.87 1364.47,1570.94 1380.24,1678.49" style="fill:none;stroke:rgb(59,40,34);stroke-width:27.08px;"/>
            <path d="M1707.86,1440.29C1708.31,1525.02 1603.65,1660.97 1623.09,1731.74" style="fill:none;stroke:rgb(59,40,34);stroke-width:27.08px;"/>
            <path d="M1610.26,1608.2C1595.68,1650.89 1576.66,1702.56 1582.93,1748" style="fill:none;stroke:rgb(59,40,34);stroke-width:27.08px;"/>
        </g>
        <path d="M1432,1120C1401.9,1092 1281.5,1093.67 1251.4,1122C1251.4,1122 1263.92,1163.47 1263.4,1205.22C1262.92,1243.91 1251.4,1290 1251.4,1290C1281.5,1318 1401.9,1318.33 1432,1290C1432,1290 1423.59,1245.42 1423,1219.22C1422,1174.89 1432,1120 1432,1120Z" style="fill:rgb(222,174,155);"/>
        <g transform="matrix(1,0,0,1,-390.757,3.41061e-13)">
            <path d="M1717,451C1717,451 1490.62,424.271 1437,555C1382.42,688.068 1340,939.138 1437,1067C1510.14,1163.41 1633.08,1189.69 1717,1194C1800.92,1198.31 1943.84,1139.93 1994,1067C2044.16,994.068 2201.97,696.888 1994,555C1786.03,413.112 1717,451 1717,451Z" style="fill:rgb(234,197,183);"/>
        </g>
        <g transform="matrix(0.812292,0,0,0.64063,-63.1998,383.745)">
            <path d="M1611,1040C1651.33,1074.33 1736.78,1072.11 1777,1041" style="fill:none;stroke:rgb(169,65,53);stroke-width:22.78px;stroke-linecap:round;"/>
        </g>
        <g transform="matrix(1,0,0,1,-390.882,-11.2255)">
            <path d="M1683,926.08C1673.33,933.733 1648.17,959.131 1650,972C1651.83,984.869 1677.76,1003.29 1694,1003.29C1710.24,1003.29 1745.09,984.869 1747.42,972C1749.75,959.131 1718.74,933.733 1708,926.08C1701.21,921.243 1689.53,920.907 1683,926.08Z" style="fill:rgb(222,174,155);"/>
        </g>
        <g transform="matrix(1.45359,0,0,1.45359,-1237.42,-391.717)">
            <g transform="matrix(1,-5.10337e-05,5.10337e-05,1,-0.0460891,-37.9043)">
                <circle cx="1875.84" cy="903.158" r="82.842" style="fill:white;"/>
            </g>
            <g transform="matrix(0.5,-2.55169e-05,2.55169e-05,0.5,956.082,413.627)">
                <circle cx="1875.84" cy="903.158" r="82.842" style="fill:rgb(59,40,34);"/>
            </g>
            <g transform="matrix(0.219497,-1.12017e-05,1.12017e-05,0.219497,1482.28,666.939)">
                <circle cx="1875.84" cy="903.158" r="82.842" style="fill:rgb(28,26,26);"/>
            </g>
            <g transform="matrix(0.122932,-6.27368e-06,6.27368e-06,0.122932,1681.6,743.959)">
                <circle cx="1875.84" cy="903.158" r="82.842" style="fill:rgb(222,208,213);"/>
            </g>
            <path d="M1806,915.737C1806,915.737 1817.87,838.737 1868.84,823.737C1905.27,813.018 1958.68,838.737 1958.68,838.737C1972.49,829.948 1906.43,769.197 1875.84,771C1779.73,776.667 1765.19,873.948 1806,915.737Z" style="fill:rgb(234,197,183);"/>
            <path d="M1799,906.579C1799,906.579 1858.38,929.025 1902.03,906.579C1933.7,890.289 1953.56,832.849 1953.56,832.849C1995.39,903.252 1937.15,946.893 1894.03,957C1828.87,972.272 1787.91,918.246 1799,906.579Z" style="fill:rgb(234,197,183);"/>
            <g transform="matrix(0.687951,0,0,0.687951,851.283,269.482)">
                <path d="M1387,923.08C1387,923.08 1409.4,841.723 1455.52,817.29C1501.63,792.857 1561.8,816.012 1575,817.29" style="fill:none;stroke:rgb(59,40,34);stroke-width:12.5px;stroke-linecap:round;"/>
            </g>
        </g>
        <g transform="matrix(-1.45359,0,0,1.45359,3845.49,-391.717)">
            <g transform="matrix(1,-5.10337e-05,5.10337e-05,1,-0.0460891,-37.9043)">
                <circle cx="1875.84" cy="903.158" r="82.842" style="fill:white;"/>
            </g>
            <g transform="matrix(-0.5,-2.55169e-05,-2.55169e-05,0.5,2797.95,421.627)">
                <circle cx="1875.84" cy="903.158" r="82.842" style="fill:rgb(59,40,34);"/>
            </g>
            <g transform="matrix(-0.219497,-1.12017e-05,-1.12017e-05,0.219497,2271.75,674.939)">
                <circle cx="1875.84" cy="903.158" r="82.842" style="fill:rgb(28,26,26);"/>
            </g>
            <g transform="matrix(-0.122932,-6.27368e-06,-6.27368e-06,0.122932,2072.42,751.959)">
                <circle cx="1875.84" cy="903.158" r="82.842" style="fill:rgb(222,208,213);"/>
            </g>
            <path d="M1806,915.737C1806,915.737 1817.87,838.737 1868.84,823.737C1905.27,813.018 1958.68,838.737 1958.68,838.737C1972.49,829.948 1906.43,769.197 1875.84,771C1779.73,776.667 1765.19,873.948 1806,915.737Z" style="fill:rgb(234,197,183);"/>
            <path d="M1799,906.579C1799,906.579 1858.38,929.025 1902.03,906.579C1933.7,890.289 1953.56,832.849 1953.56,832.849C1995.39,903.252 1937.15,946.893 1894.03,957C1828.87,972.272 1787.91,918.246 1799,906.579Z" style="fill:rgb(234,197,183);"/>
            <g transform="matrix(-0.687951,0,0,0.687951,2645.5,269.482)">
                <path d="M1221.3,923.08C1208.01,882.355 1190.18,841.593 1153.43,818.906C1101.15,786.631 1052.34,806.858 1037,811C1021.66,815.142 1021.63,820.316 1021.63,820.316" style="fill:none;stroke:rgb(59,40,34);stroke-width:12.5px;stroke-linecap:round;"/>
            </g>
        </g>
        <g transform="matrix(1,0,0,1,-395.452,15.1652)">
            <path d="M1777,745C1845.67,680.333 1937.22,720.111 1983,740" style="fill:none;stroke:rgb(66,51,41);stroke-width:25px;stroke-linecap:round;"/>
        </g>
        <g transform="matrix(-1,0,0,1,3003.52,15.1652)">
            <path d="M1777,745C1850.67,681.333 1938.89,720.444 1983,740" style="fill:none;stroke:rgb(66,51,41);stroke-width:25px;stroke-linecap:round;"/>
        </g>
        <g transform="matrix(0.897194,-0.441637,0.441637,0.897194,-643.345,948.773)">
            <ellipse cx="1942.65" cy="1017.02" rx="67.347" ry="49.022" style="fill:rgb(213,129,122);"/>
        </g>
        <g transform="matrix(1,0,0,1,6,0)">
            <path d="M1275.25,934.121C1255.12,952.74 1245.62,992.291 1295.21,999.316" style="fill:none;stroke:rgb(173,129,113);stroke-width:12.5px;stroke-linecap:round;"/>
        </g>
        <g transform="matrix(-0.897194,-0.441637,-0.441637,0.897194,3284.78,950.411)">
            <ellipse cx="1942.65" cy="1017.02" rx="67.347" ry="49.022" style="fill:rgb(213,129,122);"/>
        </g>
        <g>
            <path d="M1319.94,499.183C1316.96,499.183 1287.93,560.444 1284.23,567.853C1252.52,631.276 1243.85,679.748 1267.14,760.165" style="fill:none;stroke:rgb(59,40,34);stroke-width:62.5px;"/>
            <path d="M1369.72,488.983C1357.75,482.908 1345.35,544.087 1344.24,552.988C1335.64,622.123 1356.79,663.993 1369.72,728.946" style="fill:none;stroke:rgb(59,40,34);stroke-width:95.83px;"/>
            <path d="M1417.74,464.838C1417.74,484.108 1437.62,508.913 1445.52,526.564C1451.77,540.525 1454.56,559.894 1458.24,574.592C1465.12,602.068 1464.39,674.075 1456.6,705.258C1454.57,713.372 1446.22,723.375 1446.22,730.726" style="fill:none;stroke:rgb(59,40,34);stroke-width:95.83px;"/>
            <path d="M1493.11,457.339C1486.95,469.655 1523.17,519.922 1528.01,535.077C1539.64,571.49 1572.72,685.846 1550.26,755.309" style="fill:none;stroke:rgb(59,40,34);stroke-width:95.83px;"/>
            <path d="M1501.88,488.056C1525.31,551.087 1559.98,611.487 1578.25,676.258C1597.56,744.694 1607.41,819.376 1609.53,889.934C1614.8,1065.46 1505.87,1202.92 1480.46,1275" style="fill:none;stroke:rgb(59,40,34);stroke-width:45.83px;"/>
            <path d="M1080.12,590.028C1000.45,723.468 966.395,966.124 1051,1105.45C1093.17,1174.89 1111.37,1248.17 1111.37,1248.17" style="fill:none;stroke:rgb(59,40,34);stroke-width:45.83px;"/>
            <path d="M1325.96,469.204C1318.16,453.351 1247.72,502.305 1238.57,513.932C1224.76,531.485 1219.32,557.196 1213.45,578.207C1211.37,585.633 1204.77,594.706 1202,601.104C1181.88,647.499 1167.73,702.601 1167.73,753.396" style="fill:none;stroke:rgb(59,40,34);stroke-width:95.83px;"/>
            <path d="M1213.77,473.899C1101.63,523.536 1032.66,640.907 1021.63,760.935" style="fill:none;stroke:rgb(59,40,34);stroke-width:95.83px;"/>
            <path d="M1537.11,453.411C1601.57,543.789 1672.14,707.254 1634.34,823.026" style="fill:none;stroke:rgb(59,40,34);stroke-width:45.83px;"/>
            <path d="M1395.49,510.8C1395.49,592.327 1398.5,642.72 1395.49,730.726" style="fill:none;stroke:rgb(59,40,34);stroke-width:45.83px;"/>
            <path d="M981.021,790C981.021,790 951.357,621.307 1042,510.8C1132.64,400.293 1242.82,367.353 1340.94,367C1439.07,366.647 1522.23,403.073 1557.9,422C1593.58,440.927 1710.92,515.798 1723.86,617.417C1736.81,719.036 1740.22,828.197 1679,949C1617.78,1069.8 1641.33,1025.09 1624,1042C1606.67,1058.91 1604.46,823.026 1604.46,823.026L1591.02,617.417L1433,488.056L1185,510.8L1042,637.677L981.021,790Z" style="fill:rgb(59,40,34);stroke:rgb(59,40,34);stroke-width:12.5px;"/>
        </g>
        <path d="M1634.34,863C1634.34,863 1666.14,809.636 1707.86,851C1749.58,892.364 1696.65,957.463 1669,972C1641.35,986.537 1634.34,983 1634.34,983L1634.34,863Z" style="fill:rgb(234,196,182);"/>
    </g>
</svg>
